<?xml version="1.0" standalone="no"?>
<!DOCTYPE svg PUBLIC "-//W3C//DTD SVG 20010904//EN"
 "http://www.w3.org/TR/2001/REC-SVG-20010904/DTD/svg10.dtd">
<svg version="1.0" xmlns="http://www.w3.org/2000/svg"
 width="375.000000pt" height="375.000000pt" viewBox="0 0 375.000000 375.000000"
 preserveAspectRatio="xMidYMid meet">
<metadata>
Created by potrace 1.14, written by Peter Selinger 2001-2017
</metadata>
<g transform="translate(0.000000,375.000000) scale(0.100000,-0.100000)"
fill="#000000" stroke="none">
<path d="M1390 3651 c0 -115 7 -104 -108 -168 -87 -48 -228 -139 -306 -197
-157 -118 -360 -336 -473 -510 -48 -73 -149 -264 -173 -326 -19 -51 -49 -123
-59 -139 -6 -12 -35 -15 -139 -14 l-132 0 0 -1149 0 -1148 125 0 c112 0 125 2
126 18 1 9 3 35 5 57 6 50 7 668 3 1290 -2 400 0 487 14 585 48 325 129 547
295 805 82 127 127 180 287 339 195 192 384 312 640 405 25 9 129 39 200 57
125 33 395 38 552 10 361 -64 665 -220 918 -471 198 -196 308 -371 396 -635
73 -218 100 -387 94 -590 -6 -179 -15 -240 -65 -416 -103 -360 -366 -718 -675
-917 -182 -117 -462 -228 -637 -252 -133 -18 -383 -13 -498 10 -225 44 -393
91 -467 131 -28 14 -43 18 -44 11 0 -7 -2 -108 -2 -225 l-2 -213 1232 3 c677
2 1235 7 1240 11 4 5 9 848 11 1873 l3 1864 -1180 0 -1181 0 0 -99z"/>
<path d="M1869 3297 c-2 -3 -33 -7 -69 -11 -297 -28 -592 -179 -846 -430 -160
-160 -288 -391 -350 -635 -23 -87 -25 -117 -26 -316 0 -215 9 -302 42 -380 4
-11 18 -49 30 -85 135 -392 516 -753 920 -872 244 -71 460 -83 695 -38 89 17
255 74 337 115 74 37 216 128 253 162 11 10 50 44 87 76 127 110 250 276 328
441 96 203 129 368 125 616 -6 281 -78 505 -244 754 -89 135 -277 312 -427
403 -115 70 -300 145 -429 174 -27 6 -59 13 -70 16 -25 6 -349 15 -356 10z
m-185 -119 c7 -51 12 -122 22 -278 3 -63 8 -117 9 -120 8 -13 -14 -30 -100
-80 -220 -129 -341 -260 -460 -495 -27 -55 -55 -101 -61 -102 -6 -1 -113 -5
-237 -9 -208 -6 -227 -5 -233 10 -15 39 61 267 146 437 83 167 268 374 424
474 157 103 385 204 458 205 24 0 27 -4 32 -42z m576 -437 c190 -50 347 -154
481 -321 190 -235 227 -611 89 -897 -63 -128 -186 -272 -290 -338 -258 -163
-483 -190 -800 -97 -36 11 -73 23 -83 27 -16 7 -17 -8 -15 -251 1 -143 -1
-265 -5 -272 -10 -14 -31 -11 -107 16 -117 42 -195 87 -367 212 l-61 45 1 481
c1 521 5 608 38 717 49 166 125 293 253 421 159 160 336 256 501 273 28 3 51
7 53 8 13 11 246 -7 312 -24z"/>
<path d="M1972 2098 c-78 -29 -142 -124 -142 -212 0 -86 94 -199 175 -212 149
-22 265 73 267 216 1 158 -151 264 -300 208z"/>
</g>
</svg>
